<?xml version="1.0" encoding="UTF-8" standalone="no"?><!DOCTYPE svg PUBLIC "-//W3C//DTD SVG 1.1//EN" "http://www.w3.org/Graphics/SVG/1.1/DTD/svg11.dtd"><svg width="100%" height="100%" viewBox="0 0 256 256" version="1.1" xmlns="http://www.w3.org/2000/svg" xmlns:xlink="http://www.w3.org/1999/xlink" xml:space="preserve" xmlns:serif="http://www.serif.com/" style="fill-rule:evenodd;clip-rule:evenodd;stroke-linejoin:round;stroke-miterlimit:2;"><path d="M253.858,130.719c0,65.03 -52.672,117.748 -117.647,117.748c-64.974,-0 -132.353,-107.176 -132.353,-172.206c0,-65.03 67.379,-63.29 132.353,-63.29c64.975,0 117.647,52.718 117.647,117.748Z" style="fill:#f1d5f8;fill-rule:nonzero;"/><path d="M220.358,130.718c0,47.772 -38.556,86.499 -86.117,86.499c-47.562,-0 -96.883,-78.732 -96.883,-126.504c0,-47.772 49.321,-46.493 96.883,-46.493c47.561,0 86.117,38.727 86.117,86.498Z" style="fill:#c09bca;fill-rule:nonzero;"/><path d="M185.358,130.718c0,29.27 -23.808,52.999 -53.176,52.999c-29.369,-0 -59.824,-48.241 -59.824,-77.511c0,-29.271 30.455,-28.487 59.824,-28.487c29.368,-0 53.176,23.728 53.176,52.999Z" style="fill:#58257a;fill-rule:nonzero;"/></svg>